<mxfile host="app.diagrams.net" agent="Mozilla/5.0 (Macintosh; Intel Mac OS X 10_15_7) AppleWebKit/537.36 (KHTML, like Gecko) Chrome/127.0.0.0 Safari/537.36" version="24.7.7">
  <diagram name="第 1 页" id="7SsCVHw0W15NpyXnOUrb">
    <mxGraphModel dx="-2128" dy="732" grid="1" gridSize="10" guides="1" tooltips="1" connect="1" arrows="1" fold="1" page="1" pageScale="1" pageWidth="827" pageHeight="1169" math="0" shadow="0">
      <root>
        <mxCell id="0" />
        <mxCell id="1" parent="0" />
        <mxCell id="EodZ2tuuJ1Xo54SDkZiC-1" value="资产" style="rounded=0;whiteSpace=wrap;html=1;fillColor=none;strokeColor=none;fontSize=25;" vertex="1" parent="1">
          <mxGeometry x="3430" y="124.25" width="120" height="60" as="geometry" />
        </mxCell>
        <mxCell id="EodZ2tuuJ1Xo54SDkZiC-2" value="负债" style="rounded=0;whiteSpace=wrap;html=1;fillColor=none;strokeColor=none;fontSize=25;" vertex="1" parent="1">
          <mxGeometry x="3659" y="127.5" width="120" height="60" as="geometry" />
        </mxCell>
        <mxCell id="EodZ2tuuJ1Xo54SDkZiC-3" value="" style="endArrow=none;html=1;rounded=0;exitX=0;exitY=1;exitDx=0;exitDy=0;entryX=1;entryY=1;entryDx=0;entryDy=0;dashed=1;" edge="1" parent="1">
          <mxGeometry width="50" height="50" relative="1" as="geometry">
            <mxPoint x="3438" y="184.25" as="sourcePoint" />
            <mxPoint x="3787" y="187.5" as="targetPoint" />
          </mxGeometry>
        </mxCell>
        <mxCell id="EodZ2tuuJ1Xo54SDkZiC-4" value="=" style="text;html=1;align=center;verticalAlign=middle;resizable=0;points=[];autosize=1;strokeColor=none;fillColor=none;fontSize=27;" vertex="1" parent="1">
          <mxGeometry x="3599" y="128" width="40" height="50" as="geometry" />
        </mxCell>
        <mxCell id="EodZ2tuuJ1Xo54SDkZiC-5" style="edgeStyle=orthogonalEdgeStyle;rounded=0;orthogonalLoop=1;jettySize=auto;html=1;exitX=0.5;exitY=1;exitDx=0;exitDy=0;entryX=0.5;entryY=1;entryDx=0;entryDy=0;endArrow=classic;endFill=1;startArrow=classic;startFill=1;" edge="1" parent="1" source="EodZ2tuuJ1Xo54SDkZiC-6" target="EodZ2tuuJ1Xo54SDkZiC-11">
          <mxGeometry relative="1" as="geometry">
            <Array as="points">
              <mxPoint x="3465" y="320" />
              <mxPoint x="3755" y="320" />
            </Array>
          </mxGeometry>
        </mxCell>
        <mxCell id="EodZ2tuuJ1Xo54SDkZiC-6" value="借&lt;div&gt;（增加）&lt;/div&gt;" style="rounded=0;whiteSpace=wrap;html=1;fillColor=none;strokeColor=none;fontSize=25;" vertex="1" parent="1">
          <mxGeometry x="3420" y="215" width="90" height="60" as="geometry" />
        </mxCell>
        <mxCell id="EodZ2tuuJ1Xo54SDkZiC-7" value="贷&lt;div&gt;（减少）&lt;/div&gt;" style="rounded=0;whiteSpace=wrap;html=1;fillColor=none;strokeColor=none;fontSize=25;" vertex="1" parent="1">
          <mxGeometry x="3514" y="211.5" width="90" height="60" as="geometry" />
        </mxCell>
        <mxCell id="EodZ2tuuJ1Xo54SDkZiC-8" value="" style="endArrow=none;html=1;rounded=0;dashed=1;" edge="1" parent="1">
          <mxGeometry width="50" height="50" relative="1" as="geometry">
            <mxPoint x="3617" y="360" as="sourcePoint" />
            <mxPoint x="3617" y="190" as="targetPoint" />
          </mxGeometry>
        </mxCell>
        <mxCell id="EodZ2tuuJ1Xo54SDkZiC-9" style="edgeStyle=orthogonalEdgeStyle;rounded=0;orthogonalLoop=1;jettySize=auto;html=1;exitX=0.5;exitY=1;exitDx=0;exitDy=0;entryX=0.5;entryY=1;entryDx=0;entryDy=0;startArrow=classic;startFill=1;" edge="1" parent="1" source="EodZ2tuuJ1Xo54SDkZiC-10" target="EodZ2tuuJ1Xo54SDkZiC-7">
          <mxGeometry relative="1" as="geometry" />
        </mxCell>
        <mxCell id="EodZ2tuuJ1Xo54SDkZiC-10" value="借&lt;div&gt;（减少）&lt;/div&gt;" style="rounded=0;whiteSpace=wrap;html=1;fillColor=none;strokeColor=none;fontSize=25;" vertex="1" parent="1">
          <mxGeometry x="3619" y="212" width="90" height="60" as="geometry" />
        </mxCell>
        <mxCell id="EodZ2tuuJ1Xo54SDkZiC-11" value="贷&lt;div&gt;（增加）&lt;/div&gt;" style="rounded=0;whiteSpace=wrap;html=1;fillColor=none;strokeColor=none;fontSize=25;" vertex="1" parent="1">
          <mxGeometry x="3710" y="209.5" width="90" height="60" as="geometry" />
        </mxCell>
      </root>
    </mxGraphModel>
  </diagram>
</mxfile>
